<svg id="Logo" xmlns="http://www.w3.org/2000/svg" viewBox="0 0 80 80"><defs><style>.cls-1{fill:#e95a02;}.cls-2{fill:#fd900f;}.cls-3{fill:#0c024c;}.cls-4{fill:#11046f;}</style></defs><path class="cls-1" d="M73.64,23.42h0a1.48,1.48,0,0,0-.57,1.87,36.64,36.64,0,0,1,0,29.41,1.48,1.48,0,0,0,.57,1.87h0a1.49,1.49,0,0,0,2.13-.64,39.68,39.68,0,0,0,0-31.87A1.49,1.49,0,0,0,73.64,23.42Z"/><path class="cls-2" d="M68.33,26.64h0a2.71,2.71,0,0,0-1.16,3.25,29.11,29.11,0,0,1,0,20.21,2.71,2.71,0,0,0,1.16,3.25h0a2.74,2.74,0,0,0,4-1.35,34.9,34.9,0,0,0,0-24A2.74,2.74,0,0,0,68.33,26.64Z"/><path class="cls-3" d="M40.41,76.56A36.56,36.56,0,1,1,67.25,15.19a1.62,1.62,0,0,0,2,.31h0a1.39,1.39,0,0,0,.33-2.11,39.51,39.51,0,1,0-.07,53.3,1.47,1.47,0,0,0-.35-2.24l0,0a1.42,1.42,0,0,0-1.78.27A36.45,36.45,0,0,1,40.41,76.56Z"/><path class="cls-3" d="M39.8,57.86a17.86,17.86,0,1,1,11-32A2.08,2.08,0,0,0,53.1,26h0a1.73,1.73,0,0,0,.21-2.83,21.52,21.52,0,0,0-15.06-4.69c-9.58.67-18.79,9.44-19.89,19a21.59,21.59,0,0,0,35,19.38A1.74,1.74,0,0,0,53.11,54h0a2.1,2.1,0,0,0-2.36.11A17.8,17.8,0,0,1,39.8,57.86Z"/><path class="cls-3" d="M61.22,59.4a5.12,5.12,0,0,0-1.33-.8,5.32,5.32,0,0,0-4.66.3c-.14.08-1.25.93-1.35,1a24.17,24.17,0,1,1,.52-39.44,6.7,6.7,0,0,0,.6.45,5.27,5.27,0,0,0,2.86.84,5.17,5.17,0,0,0,2.29-.52,5,5,0,0,0,.84-.5,5.27,5.27,0,0,0,.7-7.86,12.38,12.38,0,0,0-1.52-1.15,34.64,34.64,0,1,0,.14,56.43,13,13,0,0,0,1.2-.89,5.28,5.28,0,0,0-.29-7.87Z"/><path class="cls-3" d="M61.62,59.77a29.19,29.19,0,1,1,0-39.56,5.27,5.27,0,0,0,.29-7.11c-.06-.07-.34-.36-.42-.43-.49-.41-1.27-.91-1.3-.94a34.64,34.64,0,1,0,.14,56.43,13,13,0,0,0,1.2-.89,5.28,5.28,0,0,0,.11-7.5Z"/><path class="cls-4" d="M40.14,10.81a29.19,29.19,0,1,0,21.48,49l-.4-.37L61,59.25,60.7,59a4.29,4.29,0,0,0-.55-.31,27.45,27.45,0,1,1,0-37.47h0a5,5,0,0,0,.84-.5,5.15,5.15,0,0,0,.61-.53A29.14,29.14,0,0,0,40.14,10.81Z"/><path class="cls-4" d="M57.86,58.2a5.22,5.22,0,0,0-2.63.7c-.07,0-1.31,1-1.35,1A24,24,0,0,1,42.63,64h0l-.93.08-.35,0H40.16a24.16,24.16,0,0,1-.11-48.32h.86l.57,0,.47,0,.18,0A23.9,23.9,0,0,1,54.4,20.47a6.7,6.7,0,0,0,.6.45,5.27,5.27,0,0,0,2.86.84,5.16,5.16,0,0,0,.79-.06,26,26,0,1,0,0,36.56A5.69,5.69,0,0,0,57.86,58.2Z"/></svg>